<?xml version="1.0" encoding="utf-8"?>
<!-- Generator: Adobe Illustrator 23.0.6, SVG Export Plug-In . SVG Version: 6.00 Build 0)  -->
<svg version="1.1" id="Layer_1_1_" xmlns="http://www.w3.org/2000/svg" xmlns:xlink="http://www.w3.org/1999/xlink" x="0px" y="0px"
	 viewBox="0 0 512 512" style="enable-background:new 0 0 512 512;" xml:space="preserve">
<style type="text/css">
	.st0{fill:#0068B9;}
</style>
<path class="st0" d="M480,464h-16v16h-32v-16h-16v16h-32v-16h-16v16h-32v-16h-16v16h-32v-16h-16v16h-32v-16h-16v16h-32v-16h-16v16
	h-32v-16h-16v16H96v-16H80v16H32v-48h16v-16H32v-32h16v-16H32v-32h16v-16H32v-32h16v-16H32v-32h16v-16H32v-32h16v-16H32v-32h16v-16
	H32V96h16V80H32V48h16V32H32V16H16v472c0,4.4,3.6,8,8,8h472v-16h-16V464z"/>
<path class="st0" d="M80,352c0,13.2,10.8,24,24,24s24-10.8,24-24s-10.8-24-24-24S80,338.8,80,352z M112,352c0,4.4-3.6,8-8,8
	s-8-3.6-8-8s3.6-8,8-8S112,347.6,112,352z"/>
<path class="st0" d="M152,264c0-13.2-10.8-24-24-24s-24,10.8-24,24s10.8,24,24,24S152,277.2,152,264z M120,264c0-4.4,3.6-8,8-8
	c4.4,0,8,3.6,8,8s-3.6,8-8,8S120,268.4,120,264z"/>
<path class="st0" d="M464,120c0-13.2-10.8-24-24-24s-24,10.8-24,24s10.8,24,24,24S464,133.2,464,120z M432,120c0-4.4,3.6-8,8-8
	s8,3.6,8,8s-3.6,8-8,8S432,124.4,432,120z"/>
<path class="st0" d="M176,200c0,13.2,10.8,24,24,24s24-10.8,24-24s-10.8-24-24-24S176,186.8,176,200z M208,200c0,4.4-3.6,8-8,8
	s-8-3.6-8-8s3.6-8,8-8S208,195.6,208,200z"/>
<path class="st0" d="M280,336c0,13.2,10.8,24,24,24s24-10.8,24-24s-10.8-24-24-24S280,322.8,280,336z M312,336c0,4.4-3.6,8-8,8
	s-8-3.6-8-8s3.6-8,8-8S312,331.6,312,336z"/>
<path class="st0" d="M344,256c13.2,0,24-10.8,24-24s-10.8-24-24-24s-24,10.8-24,24S330.8,256,344,256z M344,224c4.4,0,8,3.6,8,8
	s-3.6,8-8,8s-8-3.6-8-8S339.6,224,344,224z"/>
<path class="st0" d="M304,96c0,13.2,10.8,24,24,24s24-10.8,24-24s-10.8-24-24-24S304,82.8,304,96z M336,96c0,4.4-3.6,8-8,8
	s-8-3.6-8-8s3.6-8,8-8S336,91.6,336,96z"/>
<path class="st0" d="M490.3,10.3l-8.1,8.1c-3.1-1.5-6.6-2.4-10.3-2.4c-13.2,0-24,10.8-24,24c0,3.7,0.9,7.2,2.4,10.3l-19,19
	c0.4-1.7,0.6-3.5,0.6-5.3c0-13.2-10.8-24-24-24s-24,10.8-24,24s10.8,24,24,24c1.8,0,3.6-0.2,5.3-0.6l-35,35
	c-3.1-1.5-6.6-2.4-10.3-2.4c-13.2,0-24,10.8-24,24c0,3.7,0.9,7.2,2.4,10.3L319.7,181c-1.5-11.8-11.5-21-23.7-21
	c-13.2,0-24,10.8-24,24c0,12.2,9.2,22.2,21,23.7l-26.7,26.7c-3.1-1.5-6.6-2.4-10.3-2.4c-13.2,0-24,10.8-24,24
	c0,3.7,0.9,7.2,2.4,10.3l-30.2,30.1c-1.4-0.2-2.8-0.4-4.3-0.4c-13.2,0-24,10.8-24,24c0,1.5,0.2,2.9,0.4,4.3l-70.1,70.1
	c-3.1-1.5-6.6-2.4-10.3-2.4c-13.2,0-24,10.8-24,24c0,3.7,0.9,7.2,2.4,10.3l-16.1,16.1l11.3,11.3l16.1-16.1c3.1,1.5,6.6,2.4,10.3,2.4
	c13.2,0,24-10.8,24-24c0-3.7-0.9-7.2-2.4-10.3l67.3-67.3c4.2,3.4,9.4,5.5,15.2,5.5c13.2,0,24-10.8,24-24c0-5.8-2.1-11-5.5-15.2
	l27.3-27.3c3.1,1.5,6.6,2.4,10.3,2.4c13.2,0,24-10.8,24-24c0-3.7-0.9-7.2-2.4-10.3l80.1-80.1c3.1,1.5,6.6,2.4,10.3,2.4
	c13.2,0,24-10.8,24-24c0-3.7-0.9-7.2-2.4-10.3l72.1-72.1c3.1,1.5,6.6,2.4,10.3,2.4c13.2,0,24-10.8,24-24c0-3.7-0.9-7.2-2.4-10.3
	l8.1-8.1L490.3,10.3z M400,64c0-4.4,3.6-8,8-8s8,3.6,8,8s-3.6,8-8,8S400,68.4,400,64z M288,184c0-4.4,3.6-8,8-8s8,3.6,8,8
	s-3.6,8-8,8S288,188.4,288,184z M96,424c-4.4,0-8-3.6-8-8s3.6-8,8-8s8,3.6,8,8S100.4,424,96,424z M200,328c-4.4,0-8-3.6-8-8
	s3.6-8,8-8s8,3.6,8,8S204.4,328,200,328z M256,264c-4.4,0-8-3.6-8-8s3.6-8,8-8c4.4,0,8,3.6,8,8C264,260.4,260.4,264,256,264z
	 M368,152c-4.4,0-8-3.6-8-8s3.6-8,8-8s8,3.6,8,8S372.4,152,368,152z M472,48c-4.4,0-8-3.6-8-8s3.6-8,8-8s8,3.6,8,8S476.4,48,472,48z
	"/>
</svg>
