<svg id="Layer_1" data-name="Layer 1" xmlns="http://www.w3.org/2000/svg" viewBox="0 0 499.93 499.93"><defs><style>.cls-1{fill:#1674aa;}.cls-2{fill:#2f3133;}</style></defs><title>logo</title><path class="cls-1" d="M499,501H-1V1H499ZM347.28,337.68c3.2-1.28,6.22-.83,9.17-.84,18,0,36,0,54-.07,2.44,0,5.06.23,6-3.15,1.22-4.54-.57-6.82-6.15-6.85-23.16-.11-46.32-.18-69.49-.08a13.69,13.69,0,0,1-10.66-4.31c-10.71-10.92-21.6-21.66-32.41-32.49-12.08-12.11-24.06-24.34-36.27-36.34-4.65-4.57-5-4.94-.68-9.43,15.36-16,31.24-31.56,47-47.18,20.3-20.08,40.16-40.61,60.5-60.66,3-2.95,5.18-7.61,10.6-7.54,12,.14,24,0,36,.28,3.61.08,5.6-1.21,6.62-4.59,1.77-5.86,3.7-11.68,5.55-17.52,4.76-15,9.49-30,14.31-45,.61-1.92,1.84-4,.39-5.66-1.71-2-4-.65-6,0-13.48,4.25-27.08,8.15-40.4,12.87-7.83,2.77-16.15,4.08-23.6,8a4.53,4.53,0,0,0-2.8,4.65c.15,11-.1,22,.16,33a13.72,13.72,0,0,1-4.41,10.65q-18.17,18.15-36.26,36.36-32.92,33-65.89,66c-3.64,3.63-6.92,7.63-11.07,10.79-2.3,1.76-3.8,1.33-5.57-.47q-7.17-7.28-14.42-14.47-47.4-47.26-94.82-94.5c-4.56-4.54-8.32-9-7.55-16.32.73-6.92.11-14,.06-21C129,74.88,130.78,78,114.56,72.86S82,62.43,65.68,57.26c-3-1-6-3-9.78-1.55.38,2.55.43,5.1,1.17,7.43,6.44,20.27,13.11,40.46,19.43,60.77,1.17,3.77,3,5,6.72,4.89,10.5-.19,21,0,31.5-.12A16.46,16.46,0,0,1,127.56,134c17.56,17.95,35.34,35.68,53.08,53.44s35.54,35.46,53.28,53.21c9.51,9.51,7.37,8.18-.34,16.08-20.88,21.38-42.36,42.16-63.25,63.53-4.72,4.83-9.75,6.82-16.15,6.42-1.33-.08-2.67,0-4,0q-31.5-.15-63-.32c-2.6,0-4.54.79-5.54,3.33a5.18,5.18,0,0,0,.94,5.6c1.49,1.74,3.61,1.51,5.58,1.52,18.67,0,37.33,0,56,.09,2.24,0,4.65-.58,6.91,1.15-.82,3.11-3.24,4.94-5.37,6.93-3,2.83-6.9,5.06-9.09,8.41-2.92,4.47-6.66,4.73-11.14,4.72-20.83,0-41.65.09-62.48.14-2.83,0-5.67-.18-8.49-.07-3.08.12-5.06,1.73-5.12,5s1.83,4.85,4.92,5.16a33.93,33.93,0,0,0,3.49.13q28,.06,56,.12c1.74,0,3.69-.55,5.09,1,.43,1.48-.55,2.32-1.33,3.11-4.2,4.26-8.45,8.46-12.71,12.67-9.7,9.58-19.47,19.09-29.08,28.76-2.58,2.6-6.49,5.49-2.86,9.68,3.47,4,6.75.94,9.37-1.55,6.38-6.06,12.54-12.34,18.75-18.57,7.16-7.17,14.27-14.37,21.42-21.54,1.35-1.34,2.91-2.38,4.91-1.52s1.8,2.59,1.79,4.27c0,18.66,0,37.32-.2,56,0,4.05.87,7.05,5.49,7.22,5.22.19,4.62-3.78,4.63-7,.07-22.81.2-45.63,0-68.44,0-4.9,1.23-8.69,4.76-12,3.28-3.05,6.28-6.4,9.51-9.5,1.77-1.69,3.48-3.58,6.27-4,1.41,1.54,1.18,3.44,1.18,5.21,0,18.82.57,37.64-.53,56.45-.3,5,1.82,7.93,6,8.1,5.37.21,4.55-4.15,4.56-7.1.09-23.49-.05-47-.15-70.48,0-3.3.71-6.15,3.17-8.59q15.4-15.26,30.64-30.65c13.48-13.54,27-27,40.37-40.68,2.92-3,5.33-2.75,8.06,0q34.5,34.47,69,69c2.45,2.47,5.27,4.83,5.23,9.2-.21,20.66-.11,41.33-.12,62,0,4-.12,8,.06,12,.13,2.88,1.21,5.24,4.71,5.27,3.13,0,5.11-1.31,5.4-4.59.25-2.82.69-5.64.68-8.45-.1-16.63-.35-33.25-.43-49.88,0-2.21-.66-4.7,1.35-6.67,2.34.18,3.85,1.53,5.32,3.21,2.6,3,5.11,6.12,8.17,8.56a16.44,16.44,0,0,1,6.67,14.17c-.24,21.83-.15,43.66.06,65.49,0,3.66-2.1,9.06,4.43,9.76,3.94.42,5.68-2.85,5.68-9.85q0-28.23,0-56.48c0-1.28-.41-2.7,1.06-3.58,2.24,0,3.73,1.44,5.1,2.82,4.07,4.1,8,8.38,12,12.51q14.64,15,29.39,29.88c2.17,2.19,4.89,3.41,7.53,1s2.34-5.42.16-8c-1.92-2.3-4.1-4.38-6.23-6.49q-18-18-36.11-35.91c-1.31-1.31-3.36-2.39-2.8-4.93,2.53-1.23,5.23-.85,7.85-.87,18.5-.12,37-.16,55.49-.29,5,0,7.52-3.9,5.32-7.76-1.45-2.56-3.94-2.16-6.21-2.17-19.66-.1-39.41-1.31-58.95.15-14.17,1.06-23.42-4.51-31.38-14.72C349.87,341.84,347.52,340.73,347.28,337.68ZM363.39,263V263c2.5,0,5,0,7.5,0s5-.18,7.49-.12c3.23.07,4.3-1.52,4.42-4.6.25-6.7-.06-7.16-6.64-7.23-1.5,0-3,.07-4.49,0-1.73-.13-4,.63-4.8-1.61s1-3.56,2.53-4.92c5.38-4.86,10-10.26,11.82-17.51A13.08,13.08,0,0,0,377,213.43c-7.61-6.53-22.41-5.64-30.2,1.1-2,1.69-2.36,3.27-1.05,5.61,2.89,5.16,5.16,5.85,10.89,3,3.31-1.66,7.19-2.64,9.68.42,2.26,2.77.21,5.85-1.93,8.45a138.21,138.21,0,0,1-12.16,13.21c-2.66,2.49-5.61,4.77-7.33,8.12-2.81,5.47-.43,9.6,5.53,9.63C354.73,263,359.06,263,363.39,263ZM229.05,101.09c0,1.5-.09,3,0,4.49.88,13.17,7.7,20.25,20.79,21.7,4.85.55,9.64-.26,14.4-.82,3.5-.41,6.05-8.26,3.8-11a4.09,4.09,0,0,0-4.53-1.22,49.59,49.59,0,0,1-5.3,1.35c-8.34,1.26-13.07-2.12-14.4-10.37a27.54,27.54,0,0,1,.83-12.84c1.52-4.8,5-7.37,10-7.41a21.3,21.3,0,0,1,7.82,1.36c6.4,2.46,5.33-4,7.12-6.46,1.92-2.67-.44-4.47-3.22-5.24C245.39,68.78,228.48,77.78,229.05,101.09ZM141,236.42H141c0-6.81,0-13.62,0-20.44,0-5.83-1.15-6.7-7-6.65a15.42,15.42,0,0,0-10.36,4c-3.54,3-7.21,5.87-10.84,8.77a3.11,3.11,0,0,0-1.44,3.38c1,4.73,5.31,7.24,9.8,5.51,4.06-1.57,5.63-.65,5.71,3.72.12,6.65,0,13.3,0,19.95,0,8.54.13,8.53,8.62,8.4,4-.07,5.72-1.5,5.59-5.67C140.85,250.39,141,243.4,141,236.42Zm78.42,205.25c3.15-.07,6.55,2.22,7.75-1.82,1.06-3.59,2.05-8.14-1-10.74-2.15-1.82-5.33-2.45-6.71-5.58Zm47.26-19.11c-2.61,1.87-1.23,4.34-3.4,5.33A9.35,9.35,0,0,0,258.66,440c.92,2,2.49,2.53,4.49,2,1.47-.36,3.55.07,3.55-2.46Zm21.64,0c-2.38,2.17-1.4,4.29-3.17,5.28-4.75,2.65-6.45,6.74-5,11.56.61,2,1.95,3.16,4,2.74,1.58-.32,4,.29,4.09-2.46C288.4,434.3,288.34,428.93,288.34,422.55Zm-88.78,8.55c2.09-.34,4-2.69,5.16-.26,1.32,2.66-1.26,2.66-2.92,3.24-2.73.94-3.24,3.17-2.66,5.64s2.58,2.53,4.72,2.43c2.74-.12,3.79-1.42,3.6-4.07-.15-2,0-4-.15-5.95s-.89-3.63-3-4S200.31,428,199.56,431.1ZM241.45,429c-.16,4.24-.79,8.21.67,13.25,1.5-3.67.84-6.36,1.12-8.95.17-1.55.43-3.12,2.46-3.06s2.11,1.67,2.27,3.21c.28,2.6-.6,5.4,1,8.55C252,430.93,249.83,427.2,241.45,429ZM196.38,432c0-2.88-1.38-3.87-3.42-4-1.78-.13-3.43.43-4.06,2.2a15.12,15.12,0,0,0-.08,9.72c.64,2.06,2.47,2.49,4.45,2.27s3.11-1.33,2.95-4.2c-1.94,1.6-3.88,3.49-5.29,1.05A7.85,7.85,0,0,1,191,431C192.64,428.41,194.29,431.2,196.38,432Zm73.14,2.88c.31,2.33-.72,5.17,1.9,6.77a3.84,3.84,0,0,0,5-.6c1.85-1.89,1.87-9.91,0-11.89a3.76,3.76,0,0,0-5-.63C269,430,269.76,432.63,269.52,434.92Zm-39.35.05c.47,2.38-1,6,3.11,7.13,1.68.47,3.63.23,4.32-1.54a15,15,0,0,0,0-10.72c-.66-1.76-2.49-2.17-4.24-1.72C229.83,429,230.37,432,230.17,435Zm75.11-3.31c-.73-3.14-2.36-3.88-4.58-3.62a3.74,3.74,0,0,0-3.53,3.58,35.48,35.48,0,0,0,.07,7.43c.3,2.28,2,3.33,4.32,3.18s3.73-1,3.32-3.81c-1.9.94-3.82,3.34-5.25.73a8.7,8.7,0,0,1,0-8.13C301.08,428.43,303,431.09,305.28,431.66Zm-88.95-2.93c-1.87-.42-3.5.43-5.37-.44-.48,4.66-.83,8.74.43,14.12C213.57,437.18,210.24,431.33,216.33,428.73Zm76.43.33c-.93,4-1.3,8,.16,11.92C293.74,437,294.14,433,292.76,429.06Zm16.32,12.08c.79-4.11,1.58-8.22-.17-12.29A20.38,20.38,0,0,0,309.08,441.14Z" transform="translate(0.96 -1.04)"/><path class="cls-2" d="M347.28,337.68c.24,3.05,2.59,4.16,4,5.94,8,10.21,17.21,15.78,31.38,14.72,19.54-1.46,39.29-.25,58.95-.15,2.27,0,4.76-.39,6.21,2.17,2.2,3.86-.35,7.72-5.32,7.76-18.49.13-37,.17-55.49.29-2.62,0-5.32-.36-7.85.87-.56,2.54,1.49,3.62,2.8,4.93q18,18,36.11,35.91c2.13,2.11,4.31,4.19,6.23,6.49,2.18,2.62,2.49,5.64-.16,8s-5.36,1.18-7.53-1q-14.76-14.88-29.39-29.88c-4.05-4.13-7.95-8.41-12-12.51-1.37-1.38-2.86-2.85-5.1-2.82-1.47.88-1.06,2.3-1.06,3.58q0,28.25,0,56.48c0,7-1.74,10.27-5.68,9.85-6.53-.7-4.39-6.1-4.43-9.76-.21-21.83-.3-43.66-.06-65.49a16.44,16.44,0,0,0-6.67-14.17c-3.06-2.44-5.57-5.59-8.17-8.56-1.47-1.68-3-3-5.32-3.21-2,2-1.36,4.46-1.35,6.67.08,16.63.33,33.25.43,49.88,0,2.81-.43,5.63-.68,8.45-.29,3.28-2.27,4.61-5.4,4.59-3.5,0-4.58-2.39-4.71-5.27-.18-4-.07-8-.06-12,0-20.66-.09-41.33.12-62,0-4.37-2.78-6.73-5.23-9.2q-34.35-34.6-69-69c-2.73-2.73-5.14-3-8.06,0C231.46,273,218,286.5,204.47,300q-15.28,15.34-30.64,30.65c-2.46,2.44-3.19,5.29-3.17,8.59.1,23.49.24,47,.15,70.48,0,2.95.81,7.31-4.56,7.1-4.2-.17-6.32-3.09-6-8.1,1.1-18.81.54-37.63.53-56.45,0-1.77.23-3.67-1.18-5.21-2.79.39-4.5,2.28-6.27,4-3.23,3.1-6.23,6.45-9.51,9.5-3.53,3.29-4.81,7.08-4.76,12,.22,22.81.09,45.63,0,68.44,0,3.25.59,7.22-4.63,7-4.62-.17-5.53-3.17-5.49-7.22.16-18.66.15-37.32.2-56,0-1.68.11-3.46-1.79-4.27s-3.56.18-4.91,1.52c-7.15,7.17-14.26,14.37-21.42,21.54-6.21,6.23-12.37,12.51-18.75,18.57-2.62,2.49-5.9,5.56-9.37,1.55-3.63-4.19.28-7.08,2.86-9.68,9.61-9.67,19.38-19.18,29.08-28.76,4.26-4.21,8.51-8.41,12.71-12.67.78-.79,1.76-1.63,1.33-3.11-1.4-1.57-3.35-1-5.09-1q-28-.11-56-.12a33.93,33.93,0,0,1-3.49-.13c-3.09-.31-5-1.93-4.92-5.16s2-4.84,5.12-5c2.82-.11,5.66.08,8.49.07,20.83-.05,41.65-.17,62.48-.14,4.48,0,8.22-.25,11.14-4.72,2.19-3.35,6.06-5.58,9.09-8.41,2.13-2,4.55-3.82,5.37-6.93-2.26-1.73-4.67-1.14-6.91-1.15-18.66-.07-37.32,0-56-.09-2,0-4.09.22-5.58-1.52a5.18,5.18,0,0,1-.94-5.6c1-2.54,2.94-3.34,5.54-3.33q31.5.21,63,.32c1.33,0,2.67-.05,4,0,6.4.4,11.43-1.59,16.15-6.42,20.89-21.37,42.37-42.15,63.25-63.53,7.71-7.9,9.85-6.57.34-16.08Q207.31,214,180.64,187.41c-17.74-17.76-35.52-35.49-53.08-53.44a16.46,16.46,0,0,0-12.84-5.29c-10.5.12-21-.07-31.5.12-3.74.07-5.55-1.12-6.72-4.89-6.32-20.31-13-40.5-19.43-60.77-.74-2.33-.79-4.88-1.17-7.43,3.83-1.48,6.74.59,9.78,1.55C82,62.43,98.26,67.68,114.56,72.86s14.45,2,14.56,18.9c0,7,.67,14.06-.06,21-.77,7.31,3,11.78,7.55,16.32q47.44,47.22,94.82,94.5,7.23,7.22,14.42,14.47c1.77,1.8,3.27,2.23,5.57.47,4.15-3.16,7.43-7.16,11.07-10.79q33.06-32.9,65.89-66,18.12-18.18,36.26-36.36a13.72,13.72,0,0,0,4.41-10.65c-.26-11,0-22-.16-33a4.53,4.53,0,0,1,2.8-4.65c7.45-3.91,15.77-5.22,23.6-8,13.32-4.72,26.92-8.62,40.4-12.87,2-.63,4.3-2,6,0,1.45,1.69.22,3.74-.39,5.66-4.82,15-9.55,30-14.31,45-1.85,5.84-3.78,11.66-5.55,17.52-1,3.38-3,4.67-6.62,4.59-12-.24-24-.14-36-.28-5.42-.07-7.61,4.59-10.6,7.54-20.34,20.05-40.2,40.58-60.5,60.66-15.79,15.62-31.67,31.14-47,47.18-4.31,4.49-4,4.86.68,9.43,12.21,12,24.19,24.23,36.27,36.34,10.81,10.83,21.7,21.57,32.41,32.49a13.69,13.69,0,0,0,10.66,4.31c23.17-.1,46.33,0,69.49.08,5.58,0,7.37,2.31,6.15,6.85-.9,3.38-3.52,3.15-6,3.15-18,.06-36,0-54,.07C353.5,336.85,350.48,336.4,347.28,337.68Z" transform="translate(0.96 -1.04)"/><path class="cls-2" d="M363.39,263c-4.33,0-8.66,0-13,0-6,0-8.34-4.16-5.53-9.63,1.72-3.35,4.67-5.63,7.33-8.12A138.21,138.21,0,0,0,364.35,232c2.14-2.6,4.19-5.68,1.93-8.45-2.49-3.06-6.37-2.08-9.68-.42-5.73,2.87-8,2.18-10.89-3-1.31-2.34-.91-3.92,1.05-5.61,7.79-6.74,22.59-7.63,30.2-1.1A13.08,13.08,0,0,1,381.22,227c-1.82,7.25-6.44,12.65-11.82,17.51-1.51,1.36-3.37,2.61-2.53,4.92s3.07,1.48,4.8,1.61c1.49.11,3,0,4.49,0,6.58.07,6.89.53,6.64,7.23-.12,3.08-1.19,4.67-4.42,4.6-2.5-.06-5,.09-7.49.12s-5,0-7.5,0Z" transform="translate(0.96 -1.04)"/><path class="cls-2" d="M229.05,101.09c-.57-23.31,16.34-32.31,37.32-26.44,2.78.77,5.14,2.57,3.22,5.24-1.79,2.5-.72,8.92-7.12,6.46A21.3,21.3,0,0,0,254.65,85c-5,0-8.48,2.61-10,7.41a27.54,27.54,0,0,0-.83,12.84c1.33,8.25,6.06,11.63,14.4,10.37a49.59,49.59,0,0,0,5.3-1.35,4.09,4.09,0,0,1,4.53,1.22c2.25,2.72-.3,10.57-3.8,11-4.76.56-9.55,1.37-14.4.82-13.09-1.45-19.91-8.53-20.79-21.7C229,104.09,229.05,102.59,229.05,101.09Z" transform="translate(0.96 -1.04)"/><path class="cls-2" d="M141,236.42c0,7-.17,14,.07,20.94.13,4.17-1.63,5.6-5.59,5.67-8.49.13-8.61.14-8.62-8.4,0-6.65.12-13.3,0-19.95-.08-4.37-1.65-5.29-5.71-3.72-4.49,1.73-8.84-.78-9.8-5.51a3.11,3.11,0,0,1,1.44-3.38c3.63-2.9,7.3-5.77,10.84-8.77a15.42,15.42,0,0,1,10.36-4c5.81-.05,7,.82,7,6.65,0,6.82,0,13.63,0,20.44Z" transform="translate(0.96 -1.04)"/><path class="cls-2" d="M219.44,441.67V423.53c1.38,3.13,4.56,3.76,6.71,5.58,3.09,2.6,2.1,7.15,1,10.74C226,443.89,222.59,441.6,219.44,441.67Zm1.66-6.89c.5,1.88-1,5.24,2.58,5.28,2.67,0,2.31-2.82,2.26-4.73s.78-5-2.29-5.2C220.74,429.93,221.39,432.76,221.1,434.78Z" transform="translate(0.96 -1.04)"/><path class="cls-2" d="M266.7,422.56v17c0,2.53-2.08,2.1-3.55,2.46-2,.5-3.57,0-4.49-2a9.35,9.35,0,0,1,4.64-12.12C265.47,426.9,264.09,424.43,266.7,422.56Zm-6.59,12.73c.33,2-.71,5.14,2.41,5.09s2.3-3.15,2.28-5.17.78-5.11-2.34-5.06S260.47,433.34,260.11,435.29Z" transform="translate(0.96 -1.04)"/><path class="cls-2" d="M288.34,422.55c0,6.38.06,11.75,0,17.12-.05,2.75-2.51,2.14-4.09,2.46-2.09.42-3.43-.71-4-2.74-1.46-4.82.24-8.91,5-11.56C286.94,426.84,286,424.72,288.34,422.55Zm-1.63,13.08c-.12-1.5-.11-2.66-.32-3.79s-.93-2.18-2.37-1.95c-2,.32-2.15,1.95-1.95,3.42.32,2.43-1.42,5.46,1.69,7.11a1.72,1.72,0,0,0,2.33-1.26A25.37,25.37,0,0,0,286.71,435.63Z" transform="translate(0.96 -1.04)"/><path class="cls-2" d="M199.56,431.1c.75-3.12,2.66-3.38,4.74-3s2.91,2.05,3,4,0,4,.15,5.95c.19,2.65-.86,3.95-3.6,4.07-2.14.1-4.13.08-4.72-2.43s-.07-4.7,2.66-5.64c1.66-.58,4.24-.58,2.92-3.24C203.52,428.41,201.65,430.76,199.56,431.1Zm3.77,9.72c1.69-.38,2.17-1.69,2.12-3.29,0-1.3-.6-2.25-2.06-2.2-1.89.05-2.54,1.33-2.54,3A2.24,2.24,0,0,0,203.33,440.82Z" transform="translate(0.96 -1.04)"/><path class="cls-2" d="M241.45,429c8.38-1.75,10.57,2,7.53,13-1.61-3.15-.73-5.95-1-8.55-.16-1.54-.2-3.16-2.27-3.21s-2.29,1.51-2.46,3.06c-.28,2.59.38,5.28-1.12,8.95C240.66,437.16,241.29,433.19,241.45,429Z" transform="translate(0.96 -1.04)"/><path class="cls-2" d="M196.38,432c-2.09-.84-3.74-3.63-5.39-1.05a7.85,7.85,0,0,0-.06,8.06c1.41,2.44,3.35.55,5.29-1.05.16,2.87-.85,4-2.95,4.2s-3.81-.21-4.45-2.27a15.12,15.12,0,0,1,.08-9.72c.63-1.77,2.28-2.33,4.06-2.2C195,428.17,196.33,429.16,196.38,432Z" transform="translate(0.96 -1.04)"/><path class="cls-2" d="M269.52,434.92c.24-2.29-.52-4.9,2-6.35a3.76,3.76,0,0,1,5,.63c1.84,2,1.82,10,0,11.89a3.84,3.84,0,0,1-5,.6C268.8,440.09,269.83,437.25,269.52,434.92Zm6.37.5c-.44-1.85.91-5-2.22-5.15-2.94-.18-2.24,2.79-2.21,4.57,0,1.94-1.06,5,2.07,5.23C276.44,440.26,275.61,437.34,275.89,435.42Z" transform="translate(0.96 -1.04)"/><path class="cls-2" d="M230.17,435c.2-3-.34-6,3.2-6.85,1.75-.45,3.58,0,4.24,1.72a15,15,0,0,1,0,10.72c-.69,1.77-2.64,2-4.32,1.54C229.16,440.94,230.64,437.35,230.17,435Zm1.92.37c.43,1.79-.83,4.78,2.17,4.73,3.19-.05,2.25-3.15,2.28-5.1s.67-4.77-2.15-4.73C231.12,430.3,232.59,433.48,232.09,435.34Z" transform="translate(0.96 -1.04)"/><path class="cls-2" d="M305.28,431.66c-2.29-.57-4.2-3.23-5.62-.64a8.7,8.7,0,0,0,0,8.13c1.43,2.61,3.35.21,5.25-.73.41,2.84-1.12,3.66-3.32,3.81s-4-.9-4.32-3.18a35.48,35.48,0,0,1-.07-7.43A3.74,3.74,0,0,1,300.7,428C302.92,427.78,304.55,428.52,305.28,431.66Z" transform="translate(0.96 -1.04)"/><path class="cls-2" d="M216.33,428.73c-6.09,2.6-2.76,8.45-4.94,13.68-1.26-5.38-.91-9.46-.43-14.12C212.83,429.16,214.46,428.31,216.33,428.73Z" transform="translate(0.96 -1.04)"/><path class="cls-2" d="M292.76,429.06c1.38,3.92,1,7.91.16,11.92C291.46,437.08,291.83,433.1,292.76,429.06Z" transform="translate(0.96 -1.04)"/><path class="cls-2" d="M309.08,441.14a20.38,20.38,0,0,1-.17-12.29C310.66,432.92,309.87,437,309.08,441.14Z" transform="translate(0.96 -1.04)"/><path class="cls-1" d="M221.1,434.78c.29-2-.36-4.85,2.55-4.65,3.07.22,2.23,3.19,2.29,5.2s.41,4.76-2.26,4.73C220.14,440,221.6,436.66,221.1,434.78Z" transform="translate(0.96 -1.04)"/><path class="cls-1" d="M260.11,435.29c.36-2-.75-5.1,2.35-5.14s2.32,3.07,2.34,5.06.74,5.12-2.28,5.17S260.44,437.28,260.11,435.29Z" transform="translate(0.96 -1.04)"/><path class="cls-1" d="M286.71,435.63a25.37,25.37,0,0,1-.62,3.53,1.72,1.72,0,0,1-2.33,1.26c-3.11-1.65-1.37-4.68-1.69-7.11-.2-1.47,0-3.1,1.95-3.42,1.44-.23,2.14.71,2.37,1.95S286.59,434.13,286.71,435.63Z" transform="translate(0.96 -1.04)"/><path class="cls-1" d="M203.33,440.82a2.24,2.24,0,0,1-2.48-2.52c0-1.64.65-2.92,2.54-3,1.46-.05,2,.9,2.06,2.2C205.5,439.13,205,440.44,203.33,440.82Z" transform="translate(0.96 -1.04)"/><path class="cls-1" d="M275.89,435.42c-.28,1.92.55,4.84-2.36,4.65-3.13-.2-2-3.29-2.07-5.23,0-1.78-.73-4.75,2.21-4.57C276.8,430.46,275.45,433.57,275.89,435.42Z" transform="translate(0.96 -1.04)"/><path class="cls-1" d="M232.09,435.34c.5-1.86-1-5,2.3-5.1,2.82,0,2.17,2.9,2.15,4.73s.91,5-2.28,5.1C231.26,440.12,232.52,437.13,232.09,435.34Z" transform="translate(0.96 -1.04)"/></svg>